<svg width="46" height="47" viewBox="0 0 46 47" fill="none" xmlns="http://www.w3.org/2000/svg">
<path fill-rule="evenodd" clip-rule="evenodd" d="M22.3278 19.2242L22.3758 20.0163L21.5752 19.9193C18.6612 19.5475 16.1155 18.2867 13.954 16.1692L12.8973 15.1185L12.6251 15.8944C12.0487 17.624 12.4169 19.4505 13.6178 20.679C14.2582 21.3579 14.1141 21.4549 13.0094 21.0508C12.6251 20.9215 12.2889 20.8245 12.2568 20.873C12.1448 20.9861 12.529 22.457 12.8332 23.039C13.2495 23.8472 14.0981 24.6392 15.0267 25.108L15.8113 25.4797L14.8826 25.4959C13.986 25.4959 13.954 25.5121 14.0501 25.8515C14.3703 26.9022 15.6352 28.0175 17.0441 28.5024L18.0368 28.8419L17.1722 29.3591C15.8913 30.1027 14.3863 30.5229 12.8813 30.5553C12.1608 30.5714 11.5684 30.6361 11.5684 30.6846C11.5684 30.8462 13.5217 31.7514 14.6585 32.107C18.0688 33.1577 22.1196 32.7051 25.1617 30.9109C27.3232 29.6339 29.4847 27.0962 30.4934 24.6392C31.0377 23.3299 31.5821 20.9376 31.5821 19.79C31.5821 19.0464 31.6302 18.9494 32.5268 18.0604C33.0551 17.5432 33.5515 16.9774 33.6475 16.8158C33.8077 16.5087 33.7916 16.5087 32.9751 16.7834C31.6141 17.2684 31.422 17.2037 32.0945 16.4763C32.5908 15.9591 33.1832 15.0216 33.1832 14.7468C33.1832 14.6983 32.9431 14.7791 32.6709 14.9246C32.3827 15.0862 31.7422 15.3287 31.2619 15.4741L30.3973 15.7489L29.6128 15.2155C29.1805 14.9246 28.5721 14.6013 28.2518 14.5043C27.4353 14.278 26.1864 14.3103 25.4499 14.569C23.4485 15.2963 22.1837 17.1714 22.3278 19.2242Z" fill="black"/>
</svg>
