<svg width="47" height="47" viewBox="0 0 47 47" fill="none" xmlns="http://www.w3.org/2000/svg">
<path fill-rule="evenodd" clip-rule="evenodd" d="M33.2215 15.6401C34.2721 15.9284 35.0995 16.7778 35.3803 17.8565C35.8905 19.8115 35.8905 23.8906 35.8905 23.8906C35.8905 23.8906 35.8905 27.9696 35.3803 29.9248C35.0995 31.0034 34.2721 31.8529 33.2215 32.1413C31.3177 32.6651 23.6826 32.6651 23.6826 32.6651C23.6826 32.6651 16.0475 32.6651 14.1434 32.1413C13.0929 31.8529 12.2655 31.0034 11.9847 29.9248C11.4746 27.9696 11.4746 23.8906 11.4746 23.8906C11.4746 23.8906 11.4746 19.8115 11.9847 17.8565C12.2655 16.7778 13.0929 15.9284 14.1434 15.6401C16.0475 15.1161 23.6826 15.1161 23.6826 15.1161C23.6826 15.1161 31.3177 15.1161 33.2215 15.6401ZM21.3936 20.457V28.087L27.4976 24.2722L21.3936 20.457Z" fill="black"/>
</svg>
