<svg width="47" height="47" viewBox="0 0 47 47" fill="none" xmlns="http://www.w3.org/2000/svg">
<path fill-rule="evenodd" clip-rule="evenodd" d="M35.5516 23.492C35.5516 24.3176 35.4676 25.1421 35.3025 25.9457C35.1415 26.7303 34.9031 27.5006 34.5907 28.2369C34.2855 28.9602 33.907 29.6572 33.4647 30.3072C33.0289 30.9531 32.527 31.5591 31.9755 32.1115C31.4229 32.6615 30.8149 33.162 30.1693 33.5996C29.5171 34.0389 28.8191 34.4169 28.0954 34.7235C27.358 35.0342 26.586 35.2723 25.8021 35.433C24.9974 35.5985 24.1699 35.683 23.3431 35.683C22.5157 35.683 21.6883 35.5985 20.8847 35.433C20.0997 35.2723 19.3277 35.0342 18.5909 34.7235C17.8672 34.4169 17.1685 34.0389 16.5164 33.5996C15.8708 33.1621 15.2627 32.6615 14.7113 32.1115C14.1593 31.5591 13.6574 30.9531 13.221 30.3072C12.7811 29.6572 12.4019 28.9601 12.0955 28.2369C11.7831 27.5006 11.5441 26.7303 11.3825 25.9457C11.2192 25.1421 11.1357 24.3176 11.1357 23.492C11.1357 22.6658 11.2192 21.8396 11.3826 21.0377C11.5441 20.2532 11.7832 19.4817 12.0956 18.7466C12.4019 18.0228 12.7811 17.3251 13.221 16.6751C13.6574 16.0286 14.1594 15.4238 14.7114 14.8708C15.2628 14.3208 15.8708 13.8214 16.5164 13.3845C17.1686 12.9433 17.8672 12.5654 18.5909 12.2582C19.3277 11.9468 20.0997 11.7082 20.8848 11.5487C21.6884 11.3844 22.5158 11.301 23.3432 11.301C24.17 11.301 24.9974 11.3844 25.8022 11.5487C26.586 11.7082 27.358 11.9469 28.0955 12.2582C28.8191 12.5654 29.5172 12.9433 30.1693 13.3845C30.8149 13.8214 31.423 14.3208 31.9756 14.8708C32.527 15.4238 33.029 16.0286 33.4647 16.6751C33.907 17.3251 34.2855 18.0228 34.5907 18.7466C34.9031 19.4817 35.1415 20.2532 35.3025 21.0377C35.4676 21.8396 35.5516 22.6658 35.5516 23.492ZM18.8948 14.0755C15.9875 15.4465 13.8176 18.1216 13.141 21.3455C13.4159 21.3479 17.7604 21.4027 22.766 20.0746C20.9616 16.8733 19.0337 14.2607 18.8948 14.0755ZM23.6298 21.6777C18.2617 23.2825 13.1106 23.167 12.9258 23.1599C12.9228 23.2718 12.9175 23.3801 12.9175 23.492C12.9175 26.1665 13.9279 28.6047 15.5887 30.4483C15.5851 30.4429 18.4382 25.3885 24.0644 23.5718C24.2003 23.5266 24.3386 23.4861 24.4757 23.4468C24.214 22.8551 23.9284 22.2622 23.6298 21.6777ZM30.2283 15.6786C28.3928 14.0624 25.9827 13.0821 23.3431 13.0821C22.496 13.0821 21.6739 13.1845 20.8865 13.3738C21.0426 13.5833 23.0009 16.1775 24.7839 19.4466C28.7178 17.9739 30.2027 15.7167 30.2283 15.6786ZM25.1864 25.1719C25.1631 25.1796 25.1399 25.1862 25.1172 25.1945C18.9659 27.3358 16.9572 31.6512 16.9354 31.6983C18.7053 33.0728 20.9253 33.902 23.3432 33.902C24.7869 33.902 26.1622 33.6085 27.4134 33.077C27.259 32.1674 26.6534 28.9792 25.1864 25.1719ZM29.169 32.1257C31.51 30.5483 33.1725 28.0435 33.6363 25.142C33.4217 25.073 30.5049 24.1509 27.1398 24.6897C28.5073 28.4422 29.0629 31.4983 29.169 32.1257ZM25.5864 20.9979C25.8283 21.4943 26.0627 21.9996 26.279 22.5075C26.356 22.6896 26.4311 22.8682 26.5044 23.0468C30.0859 22.5967 33.6143 23.3539 33.7652 23.3848C33.7413 20.9169 32.8572 18.6519 31.3944 16.8787C31.3747 16.9066 29.7026 19.3192 25.5864 20.9979Z" fill="black"/>
</svg>
