<svg width="47" height="47" viewBox="0 0 47 47" fill="none" xmlns="http://www.w3.org/2000/svg">
<path fill-rule="evenodd" clip-rule="evenodd" d="M23.6749 11.301C20.3594 11.301 19.9433 11.3155 18.6411 11.3748C17.3415 11.4343 16.4543 11.6401 15.6781 11.9419C14.8752 12.2538 14.1941 12.6709 13.5155 13.3497C12.8364 14.0283 12.4193 14.7094 12.1065 15.512C11.8038 16.2885 11.5978 17.1759 11.5393 18.475C11.4811 19.7772 11.4658 20.1936 11.4658 23.5091C11.4658 26.8246 11.4806 27.2394 11.5396 28.5416C11.5993 29.8413 11.8051 30.7284 12.1067 31.5046C12.4188 32.3076 12.8359 32.9887 13.5147 33.6672C14.1931 34.3463 14.8742 34.7644 15.6766 35.0762C16.4533 35.3781 17.3407 35.5839 18.6401 35.6434C19.9423 35.7027 20.3581 35.7172 23.6734 35.7172C26.9891 35.7172 27.404 35.7027 28.7062 35.6434C30.0058 35.5839 30.894 35.3781 31.6707 35.0762C32.4734 34.7644 33.1535 34.3463 33.8318 33.6672C34.5108 32.9887 34.928 32.3076 35.2408 31.5049C35.5409 30.7284 35.7469 29.841 35.808 28.5419C35.8665 27.2397 35.8817 26.8246 35.8817 23.5091C35.8817 20.1936 35.8665 19.7775 35.808 18.4753C35.7469 17.1757 35.5409 16.2885 35.2408 15.5123C34.928 14.7094 34.5108 14.0283 33.8318 13.3497C33.1527 12.6706 32.4736 12.2535 31.6699 11.9419C30.8917 11.6401 30.004 11.4343 28.7044 11.3748C27.4022 11.3155 26.9876 11.301 23.6711 11.301H23.6749ZM22.5797 13.501C22.9047 13.5005 23.2674 13.501 23.6749 13.501C26.9344 13.501 27.3207 13.5127 28.6079 13.5712C29.7982 13.6256 30.4442 13.8245 30.8746 13.9916C31.4443 14.2129 31.8505 14.4774 32.2775 14.9047C32.7048 15.3319 32.9693 15.7389 33.191 16.3086C33.3581 16.7384 33.5573 17.3844 33.6115 18.5747C33.67 19.8616 33.6827 20.2482 33.6827 23.5063C33.6827 26.7643 33.67 27.1509 33.6115 28.4378C33.557 29.6281 33.3581 30.2741 33.191 30.7039C32.9698 31.2737 32.7048 31.6793 32.2775 32.1063C31.8502 32.5336 31.4445 32.7981 30.8746 33.0194C30.4447 33.1873 29.7982 33.3857 28.6079 33.4401C27.321 33.4986 26.9344 33.5113 23.6749 33.5113C20.415 33.5113 20.0287 33.4986 18.7418 33.4401C17.5515 33.3851 16.9055 33.1863 16.4749 33.0192C15.9052 32.7979 15.4982 32.5334 15.071 32.1061C14.6437 31.6788 14.3792 31.2729 14.1574 30.7029C13.9903 30.2731 13.7912 29.6271 13.737 28.4368C13.6785 27.1499 13.6668 26.7633 13.6668 23.5032C13.6668 20.2431 13.6785 19.8586 13.737 18.5717C13.7914 17.3814 13.9903 16.7354 14.1574 16.305C14.3787 15.7353 14.6437 15.3284 15.071 14.9011C15.4982 14.4738 15.9052 14.2093 16.4749 13.9875C16.9052 13.8197 17.5515 13.6213 18.7418 13.5666C19.868 13.5157 20.3044 13.5005 22.5797 13.4979V13.501ZM30.1914 15.528C29.3826 15.528 28.7265 16.1835 28.7265 16.9925C28.7265 17.8013 29.3826 18.4575 30.1914 18.4575C31.0002 18.4575 31.6564 17.8013 31.6564 16.9925C31.6564 16.1837 31.0002 15.528 30.1914 15.528ZM23.6749 17.2397C20.2127 17.2397 17.4056 20.0468 17.4056 23.5091C17.4056 26.9713 20.2127 29.7771 23.6749 29.7771C27.1372 29.7771 29.9433 26.9713 29.9433 23.5091C29.9433 20.0468 27.1372 17.2397 23.6749 17.2397ZM23.6749 19.4397C25.9222 19.4397 27.7442 21.2615 27.7442 23.5091C27.7442 25.7564 25.9222 27.5784 23.6749 27.5784C21.4273 27.5784 19.6055 25.7564 19.6055 23.5091C19.6055 21.2615 21.4273 19.4397 23.6749 19.4397Z" fill="black"/>
</svg>
